<svg width="24" height="24" viewBox="0 0 24 24" fill="none" xmlns="http://www.w3.org/2000/svg">
<g clip-path="url(#clip0)">
<path d="M20.84 2.17999L16.91 2.95999L19.65 6.49999L21.62 6.09999L20.84 2.17999ZM13.97 3.53999L12 3.92999L14.75 7.45999L16.71 7.06999L13.97 3.53999ZM9.07 4.49999L7.1 4.90999L9.85 8.43999L11.81 8.04999L9.07 4.49999ZM4.16 5.49999L3.18 5.68999C2.9224 5.74079 2.67735 5.84194 2.45892 5.98764C2.24049 6.13334 2.05297 6.32072 1.90712 6.53904C1.76126 6.75737 1.65993 7.00234 1.60894 7.2599C1.55796 7.51747 1.55832 7.78257 1.61 8.03999L2 9.99999L6.9 9.02999L4.16 5.49999ZM20 12V20H4V12H20ZM22 9.99999H2V20C2 20.5304 2.21071 21.0391 2.58579 21.4142C2.96086 21.7893 3.46957 22 4 22H20C21.11 22 22 21.11 22 20V9.99999Z" fill="#838383"/>
<path d="M9.06 15.06L10 13L10.94 15.06L13 16L10.94 16.94L10 19L9.06 16.94L7 16L9.06 15.06Z" fill="#838383"/>
<path d="M15.37 13.37L16 12L16.63 13.37L18 14L16.63 14.63L16 16L15.37 14.63L14 14L15.37 13.37Z" fill="#838383"/>
</g>
<defs>
<clipPath id="clip0">
<path d="M0 0H24V24H0V0Z" fill="white"/>
</clipPath>
</defs>
</svg>
