<svg width="374" height="51" viewBox="0 0 374 51" fill="none" xmlns="http://www.w3.org/2000/svg">
<rect x="17" width="342" height="5" fill="white"/>
<path d="M16.9773 5H358.475L374 51H0L16.9773 5Z" fill="url(#paint0_linear)"/>
<path d="M167.2 21.98C167.133 22.0933 167.063 22.1767 166.99 22.23C166.917 22.2833 166.823 22.31 166.71 22.31C166.59 22.31 166.453 22.2567 166.3 22.15C166.147 22.0367 165.953 21.9133 165.72 21.78C165.493 21.64 165.22 21.5167 164.9 21.41C164.58 21.2967 164.197 21.24 163.75 21.24C163.33 21.24 162.96 21.2967 162.64 21.41C162.327 21.5167 162.063 21.6667 161.85 21.86C161.637 22.0467 161.473 22.27 161.36 22.53C161.253 22.7833 161.2 23.06 161.2 23.36C161.2 23.7467 161.297 24.0667 161.49 24.32C161.69 24.5733 161.95 24.79 162.27 24.97C162.59 25.15 162.953 25.3067 163.36 25.44C163.767 25.5733 164.183 25.7133 164.61 25.86C165.037 26 165.453 26.1633 165.86 26.35C166.267 26.5367 166.63 26.7733 166.95 27.06C167.27 27.34 167.527 27.6867 167.72 28.1C167.92 28.5067 168.02 29.0067 168.02 29.6C168.02 30.2333 167.91 30.8267 167.69 31.38C167.477 31.9333 167.163 32.4167 166.75 32.83C166.337 33.2433 165.827 33.57 165.22 33.81C164.62 34.0433 163.937 34.16 163.17 34.16C162.71 34.16 162.263 34.1133 161.83 34.02C161.397 33.9333 160.987 33.81 160.6 33.65C160.213 33.4833 159.85 33.2867 159.51 33.06C159.177 32.8267 158.877 32.5667 158.61 32.28L159.22 31.26C159.28 31.18 159.35 31.1133 159.43 31.06C159.517 31.0067 159.613 30.98 159.72 30.98C159.86 30.98 160.02 31.0533 160.2 31.2C160.387 31.3467 160.613 31.51 160.88 31.69C161.153 31.8633 161.477 32.0233 161.85 32.17C162.23 32.3167 162.69 32.39 163.23 32.39C163.67 32.39 164.063 32.3333 164.41 32.22C164.757 32.1 165.047 31.9333 165.28 31.72C165.52 31.5 165.703 31.2367 165.83 30.93C165.957 30.6233 166.02 30.2833 166.02 29.91C166.02 29.49 165.923 29.1467 165.73 28.88C165.537 28.6133 165.28 28.39 164.96 28.21C164.64 28.03 164.277 27.8767 163.87 27.75C163.463 27.6233 163.047 27.4933 162.62 27.36C162.193 27.22 161.777 27.06 161.37 26.88C160.963 26.7 160.6 26.4667 160.28 26.18C159.96 25.8867 159.703 25.5233 159.51 25.09C159.317 24.65 159.22 24.11 159.22 23.47C159.22 22.9567 159.32 22.46 159.52 21.98C159.72 21.5 160.01 21.0767 160.39 20.71C160.777 20.3367 161.25 20.04 161.81 19.82C162.37 19.5933 163.01 19.48 163.73 19.48C164.537 19.48 165.277 19.61 165.95 19.87C166.63 20.1233 167.22 20.49 167.72 20.97L167.2 21.98ZM177.31 25.74C177.25 25.8133 177.19 25.8733 177.13 25.92C177.077 25.96 176.997 25.98 176.89 25.98C176.784 25.98 176.67 25.94 176.55 25.86C176.437 25.7733 176.29 25.6833 176.11 25.59C175.937 25.49 175.724 25.4 175.47 25.32C175.224 25.2333 174.917 25.19 174.55 25.19C174.07 25.19 173.647 25.2767 173.28 25.45C172.914 25.6233 172.607 25.87 172.36 26.19C172.12 26.51 171.937 26.9 171.81 27.36C171.684 27.82 171.62 28.3367 171.62 28.91C171.62 29.5033 171.687 30.0333 171.82 30.5C171.954 30.96 172.144 31.35 172.39 31.67C172.637 31.9833 172.937 32.2233 173.29 32.39C173.644 32.55 174.037 32.63 174.47 32.63C174.89 32.63 175.237 32.58 175.51 32.48C175.784 32.3733 176.01 32.26 176.19 32.14C176.37 32.02 176.52 31.91 176.64 31.81C176.76 31.7033 176.884 31.65 177.01 31.65C177.17 31.65 177.294 31.71 177.38 31.83L177.94 32.55C177.707 32.8367 177.444 33.08 177.15 33.28C176.864 33.48 176.557 33.6433 176.23 33.77C175.904 33.8967 175.56 33.99 175.2 34.05C174.847 34.11 174.487 34.14 174.12 34.14C173.487 34.14 172.894 34.0233 172.34 33.79C171.794 33.5567 171.317 33.2167 170.91 32.77C170.51 32.3233 170.194 31.7767 169.96 31.13C169.727 30.4767 169.61 29.7367 169.61 28.91C169.61 28.1567 169.714 27.46 169.92 26.82C170.134 26.18 170.444 25.63 170.85 25.17C171.264 24.7033 171.77 24.34 172.37 24.08C172.97 23.8133 173.657 23.68 174.43 23.68C175.157 23.68 175.797 23.7967 176.35 24.03C176.904 24.2633 177.397 24.5933 177.83 25.02L177.31 25.74ZM181.601 25.79C181.927 25.1233 182.321 24.6 182.781 24.22C183.241 23.84 183.794 23.65 184.441 23.65C184.661 23.65 184.867 23.6767 185.061 23.73C185.261 23.7767 185.434 23.85 185.581 23.95L185.451 25.42C185.404 25.6 185.294 25.69 185.121 25.69C185.027 25.69 184.887 25.6733 184.701 25.64C184.514 25.6 184.314 25.58 184.101 25.58C183.787 25.58 183.511 25.6267 183.271 25.72C183.031 25.8067 182.814 25.94 182.621 26.12C182.434 26.2933 182.267 26.51 182.121 26.77C181.974 27.0233 181.837 27.3133 181.711 27.64V34H179.761V23.84H180.881C181.094 23.84 181.237 23.88 181.311 23.96C181.391 24.0333 181.447 24.1667 181.481 24.36L181.601 25.79ZM193.444 27.79C193.444 27.4033 193.387 27.0467 193.274 26.72C193.167 26.3933 193.007 26.11 192.794 25.87C192.58 25.63 192.32 25.4433 192.014 25.31C191.707 25.1767 191.354 25.11 190.954 25.11C190.134 25.11 189.487 25.3467 189.014 25.82C188.547 26.2933 188.25 26.95 188.124 27.79H193.444ZM195.054 32.55C194.814 32.83 194.537 33.0733 194.224 33.28C193.91 33.48 193.577 33.6433 193.224 33.77C192.87 33.8967 192.504 33.99 192.124 34.05C191.75 34.11 191.38 34.14 191.014 34.14C190.314 34.14 189.664 34.0233 189.064 33.79C188.47 33.55 187.954 33.2033 187.514 32.75C187.08 32.29 186.74 31.7233 186.494 31.05C186.254 30.37 186.134 29.59 186.134 28.71C186.134 28.0033 186.244 27.3467 186.464 26.74C186.684 26.1267 186.997 25.5933 187.404 25.14C187.817 24.6867 188.32 24.33 188.914 24.07C189.507 23.81 190.174 23.68 190.914 23.68C191.534 23.68 192.104 23.7833 192.624 23.99C193.15 24.19 193.604 24.4833 193.984 24.87C194.364 25.2567 194.66 25.7333 194.874 26.3C195.094 26.8667 195.204 27.5133 195.204 28.24C195.204 28.54 195.17 28.7433 195.104 28.85C195.037 28.95 194.914 29 194.734 29H188.074C188.094 29.6067 188.18 30.1367 188.334 30.59C188.487 31.0367 188.697 31.41 188.964 31.71C189.237 32.01 189.56 32.2333 189.934 32.38C190.307 32.5267 190.724 32.6 191.184 32.6C191.617 32.6 191.99 32.55 192.304 32.45C192.624 32.35 192.897 32.2433 193.124 32.13C193.357 32.01 193.55 31.9 193.704 31.8C193.864 31.7 194.004 31.65 194.124 31.65C194.284 31.65 194.407 31.71 194.494 31.83L195.054 32.55ZM204.03 27.79C204.03 27.4033 203.973 27.0467 203.86 26.72C203.753 26.3933 203.593 26.11 203.38 25.87C203.166 25.63 202.906 25.4433 202.6 25.31C202.293 25.1767 201.94 25.11 201.54 25.11C200.72 25.11 200.073 25.3467 199.6 25.82C199.133 26.2933 198.836 26.95 198.71 27.79H204.03ZM205.64 32.55C205.4 32.83 205.123 33.0733 204.81 33.28C204.496 33.48 204.163 33.6433 203.81 33.77C203.456 33.8967 203.09 33.99 202.71 34.05C202.336 34.11 201.966 34.14 201.6 34.14C200.9 34.14 200.25 34.0233 199.65 33.79C199.056 33.55 198.54 33.2033 198.1 32.75C197.666 32.29 197.326 31.7233 197.08 31.05C196.84 30.37 196.72 29.59 196.72 28.71C196.72 28.0033 196.83 27.3467 197.05 26.74C197.27 26.1267 197.583 25.5933 197.99 25.14C198.403 24.6867 198.906 24.33 199.5 24.07C200.093 23.81 200.76 23.68 201.5 23.68C202.12 23.68 202.69 23.7833 203.21 23.99C203.736 24.19 204.19 24.4833 204.57 24.87C204.95 25.2567 205.246 25.7333 205.46 26.3C205.68 26.8667 205.79 27.5133 205.79 28.24C205.79 28.54 205.756 28.7433 205.69 28.85C205.623 28.95 205.5 29 205.32 29H198.66C198.68 29.6067 198.766 30.1367 198.92 30.59C199.073 31.0367 199.283 31.41 199.55 31.71C199.823 32.01 200.146 32.2333 200.52 32.38C200.893 32.5267 201.31 32.6 201.77 32.6C202.203 32.6 202.576 32.55 202.89 32.45C203.21 32.35 203.483 32.2433 203.71 32.13C203.943 32.01 204.136 31.9 204.29 31.8C204.45 31.7 204.59 31.65 204.71 31.65C204.87 31.65 204.993 31.71 205.08 31.83L205.64 32.55ZM209.716 25.25C209.936 25.0167 210.166 24.8033 210.406 24.61C210.646 24.4167 210.899 24.2533 211.166 24.12C211.439 23.98 211.729 23.8733 212.036 23.8C212.349 23.72 212.682 23.68 213.036 23.68C213.596 23.68 214.086 23.7733 214.506 23.96C214.932 24.1467 215.289 24.41 215.576 24.75C215.862 25.0833 216.079 25.4867 216.226 25.96C216.372 26.4333 216.446 26.9567 216.446 27.53V34H214.486V27.53C214.486 26.8033 214.319 26.24 213.986 25.84C213.652 25.4333 213.142 25.23 212.456 25.23C211.956 25.23 211.486 25.35 211.046 25.59C210.612 25.8233 210.209 26.1433 209.836 26.55V34H207.886V23.84H209.056C209.329 23.84 209.499 23.97 209.566 24.23L209.716 25.25Z" fill="white"/>
<defs>
<linearGradient id="paint0_linear" x1="187.749" y1="5" x2="187.749" y2="51" gradientUnits="userSpaceOnUse">
<stop stop-color="#949393"/>
<stop offset="1" stop-color="#C4C4C4" stop-opacity="0"/>
</linearGradient>
</defs>
</svg>
