<svg width="40" height="40" viewBox="0 0 40 40" fill="none" xmlns="http://www.w3.org/2000/svg">
<path d="M21.4414 3.10628C20.0596 1.5975 18.1725 0.832642 15.8336 0.832642C13.7303 0.832642 12.1385 1.40086 11.0997 2.52033C9.25517 4.50944 9.50299 7.79623 9.72151 10.696C9.91315 13.2302 10.0938 15.6234 8.83524 16.1696C8.42632 16.3472 8.00389 16.437 7.57912 16.437C5.96416 16.437 4.43827 15.1461 3.44333 14.0627C2.29463 12.8133 1.56586 11.5365 1.55852 11.5243C1.34852 11.1532 0.892022 11 0.501389 11.1697C0.109505 11.3394 -0.0894053 11.7769 0.0387225 12.1841C0.064348 12.2677 0.696705 14.2519 2.08463 16.257C3.98896 19.0097 6.40347 20.4647 9.06587 20.4647C9.70674 20.4647 10.3696 20.3799 11.0349 20.2132C12.8256 19.7659 14.0561 18.7899 14.7971 17.2292C15.4087 15.942 15.5844 14.4387 15.7394 13.1124C16.0727 10.2486 16.3754 9.16642 18.2443 9.16642C19.8972 9.16642 21.7819 11.2887 22.3679 12.1053C22.5705 12.3891 22.9294 12.5167 23.2651 12.4252C23.602 12.333 23.8462 12.0412 23.8767 11.694C23.8963 11.473 24.3187 6.24713 21.4414 3.10628Z" fill="#FD2D2D"/>
<g opacity="0.2">
<path opacity="0.2" d="M11.0997 3.3541C12.1385 2.23416 13.7303 1.66649 15.8336 1.66649C18.1725 1.66649 20.0596 2.43127 21.4415 3.93943C23.4606 6.14338 23.8549 9.37275 23.9037 11.1807C23.944 9.75424 23.8293 5.71251 21.4415 3.10628C20.0596 1.5975 18.1725 0.832642 15.8336 0.832642C13.7304 0.832642 12.1385 1.40086 11.0997 2.52033C9.78498 3.93818 9.53356 6.01517 9.57622 8.1417C9.61778 6.31487 9.95709 4.58577 11.0997 3.3541Z" fill="white"/>
<path opacity="0.2" d="M0.101142 12.3709C0.186613 12.2122 0.324506 12.0797 0.501541 12.0028C0.892175 11.8331 1.34867 11.9863 1.55867 12.3574C1.56602 12.3696 2.29478 13.6471 3.44348 14.8965C4.43835 15.9793 5.96424 17.2708 7.57927 17.2708C8.00413 17.2708 8.42648 17.1805 8.83539 17.0029C9.72408 16.6171 9.89495 15.3098 9.85104 13.682C9.81198 14.9112 9.56666 15.8524 8.83539 16.1698C8.42648 16.3473 8.00405 16.4371 7.57927 16.4371C5.96432 16.4371 4.43842 15.1462 3.44348 14.0628C2.29478 12.8134 1.56602 11.5366 1.55867 11.5244C1.34867 11.1533 0.892175 11.0001 0.501541 11.1698C0.109658 11.3395 -0.0892527 11.7771 0.0388751 12.1842C0.042547 12.1981 0.0633287 12.2634 0.101142 12.3709Z" fill="white"/>
</g>
<path d="M38.6279 34.0208C37.8674 33.1517 36.6784 32.2251 34.9999 31.1961V25.9848L35.8299 15.9696C35.8348 15.9128 35.8336 15.8554 35.8275 15.7993C35.6542 14.3923 34.4445 12.925 32.5073 11.7721C30.6432 10.6619 28.4093 10.0253 26.3793 10.0253C24.9888 10.0253 23.7376 10.314 22.6573 10.8841C20.8274 11.8496 19.4395 12.9678 18.5338 14.2074C17.7123 15.3299 17.2557 16.589 17.1776 17.9483C17.0372 20.3733 18.1138 22.7573 18.9793 24.6726C19.5909 26.0263 20.2219 27.4252 20.0304 28.1076C19.171 31.1741 16.8431 34.4847 16.8199 34.5177C16.6319 34.7838 16.6148 35.1352 16.7784 35.4173C16.942 35.6993 17.2545 35.8604 17.5792 35.8298C18.6607 35.7248 19.7093 35.6736 20.6969 35.6736C25.7604 35.6736 28.5729 37.0384 30.6261 38.0345C31.8774 38.6424 32.9578 39.1673 34.1247 39.1673C35.1867 39.1673 36.3024 39.0074 37.1849 38.7303C38.5131 38.3153 39.3115 37.6512 39.5568 36.76C39.79 35.9128 39.4775 34.9901 38.6279 34.0208Z" fill="#838383"/>
<path d="M34.9999 15.9006L25.8336 20.8328V22.4997L34.1661 28.3322C34.1661 28.3322 39.1662 23.7205 39.1662 21.6671C39.1662 19.6127 34.9999 15.9006 34.9999 15.9006Z" fill="#434A54"/>
<path d="M37.7086 17.4631C36.6454 16.254 35.598 15.3177 35.5541 15.2786C35.2928 15.0455 34.9132 15.0009 34.6044 15.1669L29.5812 17.8696C29.5799 17.8708 29.5775 17.872 29.5763 17.8726L25.4381 20.0992C25.1683 20.2445 24.9999 20.5265 24.9999 20.8329V22.4998C24.9999 22.772 25.1329 23.0272 25.3551 23.1822L33.6889 29.0159C33.833 29.116 34.0002 29.1673 34.1662 29.1673C34.37 29.1673 34.5727 29.0916 34.7313 28.9451C34.7838 28.8975 36.0264 27.7476 37.2899 26.323C38.4533 25.0109 40 23.1005 40 21.6673C39.9999 20.5911 39.2503 19.216 37.7086 17.4631ZM34.8692 16.9174C35.2599 17.2897 35.8665 17.8915 36.4671 18.5757C37.2215 19.4345 37.7794 20.2206 38.0809 20.8328H36.2486L33.7498 17.5198L34.8692 16.9174ZM30.9764 25.0828L32.9161 22.4998H34.0867L31.6271 25.5382L30.9764 25.0828ZM27.2117 22.4472C27.302 22.4802 27.3985 22.4997 27.4999 22.4997H30.8313L29.6093 24.1257L27.2117 22.4472ZM29.763 19.6647L30.7298 20.8329H27.5913L29.763 19.6647ZM32.2655 18.3188L34.1613 20.8328H32.8918L31.2596 18.8596L32.2655 18.3188ZM26.6661 21.6672V21.3303L26.7625 21.2791C26.7015 21.395 26.6661 21.5268 26.6661 21.6672C26.6661 21.8711 26.7405 22.0579 26.8627 22.2043L26.6661 22.0652V21.6672ZM36.0508 25.2073C35.3074 26.047 34.5555 26.8014 34.0855 27.2592L32.9955 26.4962L36.2303 22.4997H38.0528C37.7659 23.0564 37.1934 23.9182 36.0508 25.2073Z" fill="white" fill-opacity="0.87"/>
<path d="M27.4998 21.6672C27.4998 22.5876 26.754 23.3322 25.8336 23.3322C24.9132 23.3322 24.1661 22.5876 24.1661 21.6672C24.1661 20.7461 24.9132 19.9997 25.8336 19.9997C26.754 19.9997 27.4998 20.7461 27.4998 21.6672Z" fill="#3D3D3D"/>
<path opacity="0.1" d="M34.9998 31.196V33.5203L36.8089 32.4046C36.284 32.0163 35.6834 31.6159 34.9998 31.196Z" fill="black" fill-opacity="0.5"/>
</svg>
